<svg width="722" height="417" viewBox="0 0 722 417" fill="none" xmlns="http://www.w3.org/2000/svg">
<g clip-path="url(#clip0)">
<rect width="722" height="417" fill="white"/>
<path d="M12.4526 160.14H249.923C253.015 160.14 255.98 161.37 258.166 163.559C260.352 165.749 261.58 168.718 261.58 171.814V190.359H0.795471V171.814C0.795473 168.718 2.02363 165.749 4.20977 163.559C6.3959 161.37 9.36093 160.14 12.4526 160.14V160.14Z" fill="#3F3D56"/>
<path d="M245.416 157.981C244.243 157.987 243.078 158.185 241.969 158.569C241.589 157.036 240.661 155.696 239.362 154.802C238.062 153.907 236.481 153.52 234.916 153.713C233.351 153.906 231.91 154.667 230.867 155.851C229.823 157.035 229.249 158.561 229.252 160.14C229.252 160.172 229.26 160.202 229.26 160.234C228.452 160.311 227.655 160.476 226.883 160.728C226.663 159.856 226.266 159.039 225.716 158.329C225.166 157.62 224.475 157.032 223.686 156.603C225.758 155.456 227.396 153.66 228.35 151.49C233.623 151.404 237.873 147.586 237.873 142.872C237.873 138.103 233.53 134.238 228.174 134.238C227.001 134.243 225.836 134.442 224.727 134.826C224.528 133.977 224.16 133.177 223.644 132.475C223.128 131.772 222.475 131.182 221.725 130.74C220.974 130.297 220.142 130.011 219.279 129.899C218.415 129.788 217.538 129.852 216.7 130.09C215.863 130.327 215.081 130.732 214.404 131.279C213.727 131.827 213.167 132.507 212.759 133.277C212.352 134.048 212.104 134.893 212.031 135.762C211.959 136.631 212.063 137.506 212.337 138.333C212.079 138.513 211.839 138.715 211.598 138.915C210.379 137.864 208.796 137.337 207.191 137.446C206.362 135.062 204.722 133.047 202.558 131.752C200.394 130.458 197.845 129.967 195.356 130.366C192.868 130.765 190.599 132.029 188.947 133.935C187.295 135.842 186.365 138.269 186.321 140.793C185.456 140.862 184.603 141.032 183.778 141.301C183.685 140.936 183.561 140.579 183.406 140.236C184.257 139.484 184.94 138.562 185.413 137.529C185.885 136.495 186.135 135.374 186.147 134.238C186.147 129.469 181.804 125.604 176.448 125.604C175.275 125.609 174.11 125.808 173.001 126.192C172.802 125.343 172.434 124.543 171.918 123.841C171.402 123.138 170.749 122.548 169.999 122.106C169.248 121.663 168.416 121.377 167.553 121.265C166.689 121.154 165.812 121.218 164.974 121.456C164.137 121.693 163.355 122.098 162.678 122.646C162.001 123.193 161.441 123.873 161.034 124.644C160.626 125.414 160.378 126.259 160.305 127.128C160.233 127.997 160.337 128.872 160.611 129.699C159.254 130.643 158.132 131.888 157.333 133.336C156.535 134.785 156.08 136.398 156.005 138.051C155.913 138.132 155.809 138.198 155.723 138.284C155.884 137.668 155.968 137.034 155.973 136.396C155.973 131.628 151.631 127.762 146.275 127.762C145.101 127.768 143.937 127.966 142.828 128.35C142.629 127.501 142.26 126.702 141.744 125.999C141.228 125.297 140.575 124.707 139.825 124.264C139.075 123.821 138.243 123.536 137.38 123.424C136.516 123.312 135.639 123.377 134.801 123.614C133.963 123.851 133.182 124.256 132.505 124.804C131.827 125.352 131.268 126.032 130.86 126.802C130.452 127.572 130.205 128.418 130.132 129.287C130.059 130.156 130.163 131.03 130.438 131.858C129.007 132.848 127.837 134.171 127.03 135.714C126.222 137.256 125.8 138.972 125.8 140.713C125.8 142.455 126.222 144.171 127.03 145.713C127.837 147.256 129.007 148.579 130.438 149.569C130.001 150.823 130.001 152.188 130.438 153.443C129.358 154.197 128.423 155.142 127.68 156.231C127.281 154.781 126.388 153.517 125.155 152.658C123.923 151.8 122.428 151.4 120.932 151.53C119.436 151.659 118.033 152.309 116.966 153.367C115.898 154.425 115.235 155.824 115.09 157.321C114.226 156.814 113.293 156.436 112.319 156.2C114.065 155.046 115.44 153.41 116.278 151.49C121.551 151.404 125.8 147.586 125.8 142.872C125.8 138.103 121.458 134.238 116.101 134.238C114.928 134.243 113.763 134.442 112.655 134.826C112.456 133.977 112.087 133.177 111.571 132.475C111.055 131.772 110.402 131.182 109.652 130.74C108.902 130.297 108.07 130.011 107.206 129.899C106.343 129.788 105.465 129.852 104.628 130.09C103.79 130.327 103.009 130.732 102.331 131.279C101.654 131.827 101.094 132.507 100.687 133.277C100.279 134.048 100.031 134.893 99.9585 135.762C99.8859 136.631 99.9899 137.506 100.264 138.333C100.126 138.43 100.001 138.543 99.8678 138.645C99.5315 138.614 99.2046 138.555 98.8592 138.555C97.6859 138.56 96.5215 138.759 95.4126 139.143C95.3718 138.98 95.3047 138.829 95.2521 138.671C95.4607 137.71 95.4441 136.714 95.2035 135.76C94.9628 134.807 94.5047 133.922 93.8652 133.176C93.2256 132.43 92.422 131.842 91.5175 131.46C90.613 131.077 89.6322 130.91 88.6522 130.971C88.091 129.405 87.1758 127.991 85.9784 126.839C84.7809 125.687 83.3335 124.828 81.7494 124.329C80.1653 123.83 78.4875 123.705 76.8471 123.963C75.2067 124.222 73.6482 124.857 72.2935 125.818C70.9388 126.78 69.8246 128.043 69.0381 129.507C68.2516 130.972 67.814 132.599 67.7596 134.261C67.7052 135.924 68.0355 137.576 68.7246 139.089C69.4138 140.602 70.443 141.935 71.732 142.983C70.9904 143.069 70.2593 143.228 69.5496 143.46C69.2948 142.407 68.7782 141.437 68.0479 140.638C67.3177 139.839 66.3975 139.239 65.3731 138.892C64.3487 138.546 63.2533 138.464 62.1891 138.656C61.1249 138.848 60.1264 139.306 59.2866 139.988C58.3261 138.845 57.1244 137.931 55.7682 137.31C54.4119 136.688 52.9349 136.377 51.4437 136.396C50.2704 136.402 49.106 136.6 47.9971 136.984C47.7982 136.135 47.4295 135.335 46.9134 134.633C46.3973 133.931 45.7445 133.341 44.9943 132.898C44.2441 132.455 43.4122 132.17 42.5487 132.058C41.6852 131.946 40.808 132.011 39.9702 132.248C39.1323 132.485 38.3511 132.89 37.6738 133.438C36.9965 133.986 36.437 134.666 36.0292 135.436C35.6214 136.206 35.3737 137.052 35.3011 137.921C35.2285 138.79 35.3324 139.664 35.6067 140.492C34.1762 141.482 33.007 142.805 32.1992 144.348C31.3915 145.89 30.9693 147.606 30.9689 149.347C30.9689 149.381 30.9785 149.412 30.9788 149.445C29.4505 149.213 27.8883 149.382 26.4446 149.935C26.2457 149.086 25.877 148.286 25.3609 147.584C24.8448 146.882 24.192 146.292 23.4418 145.849C22.6916 145.406 21.8597 145.121 20.9962 145.009C20.1327 144.897 19.2556 144.962 18.4177 145.199C17.5799 145.436 16.7987 145.841 16.1214 146.389C15.4441 146.937 14.8846 147.617 14.4768 148.387C14.069 149.157 13.8213 150.003 13.7487 150.872C13.6761 151.74 13.78 152.615 14.0542 153.443C11.9757 154.852 10.4561 156.946 9.75972 159.361C9.06337 161.777 9.23429 164.36 10.2428 166.662C11.2513 168.964 13.0335 170.839 15.2796 171.961C17.5256 173.083 20.0934 173.382 22.5363 172.804C22.9253 175.056 24.0205 177.125 25.6631 178.712C27.3057 180.298 29.4103 181.319 31.6715 181.627C33.9326 181.934 36.2329 181.513 38.2386 180.423C40.2442 179.333 41.851 177.631 42.8258 175.565C43.7086 177.435 45.1113 179.011 46.8658 180.103C48.6203 181.196 50.6521 181.758 52.7177 181.723C54.7833 181.688 56.7951 181.057 58.5117 179.906C60.2284 178.755 61.5772 177.133 62.3964 175.233C63.6663 175.216 64.923 174.972 66.1078 174.514C66.8202 176.558 68.1323 178.34 69.8724 179.625C71.6125 180.911 73.6996 181.64 75.8604 181.718C78.0212 181.796 80.1551 181.218 81.9829 180.061C83.8106 178.904 85.247 177.222 86.1041 175.233C87.6755 175.202 89.2199 174.819 90.6246 174.113C91.608 175.854 93.0571 177.285 94.8089 178.246C96.5606 179.207 98.5453 179.659 100.54 179.551C102.534 179.443 104.458 178.779 106.097 177.635C107.735 176.491 109.021 174.912 109.812 173.075C110.39 173.061 110.966 173 111.535 172.894C112.341 174.853 113.706 176.53 115.459 177.717C117.212 178.903 119.274 179.546 121.39 179.566C123.505 179.585 125.58 178.98 127.353 177.825C129.127 176.671 130.522 175.019 131.364 173.075C132.211 173.051 133.051 172.927 133.869 172.705C136.035 173.31 138.337 173.202 140.438 172.399C142.538 171.596 144.326 170.138 145.538 168.242C144.861 170.87 145.198 173.658 146.482 176.048C147.767 178.439 149.903 180.256 152.467 181.139C155.03 182.021 157.831 181.903 160.311 180.809C162.792 179.714 164.769 177.723 165.848 175.233C167.42 175.202 168.964 174.819 170.369 174.113C171.352 175.854 172.801 177.285 174.553 178.246C176.305 179.207 178.289 179.659 180.284 179.551C182.278 179.443 184.202 178.779 185.841 177.635C187.479 176.491 188.766 174.912 189.556 173.075C191.127 173.044 192.672 172.661 194.076 171.955C194.834 173.307 195.877 174.478 197.133 175.386C198.388 176.294 199.826 176.917 201.347 177.213C202.867 177.508 204.433 177.468 205.937 177.095C207.44 176.723 208.844 176.027 210.052 175.056C210.426 177.121 211.396 179.031 212.841 180.55C214.287 182.069 216.145 183.131 218.186 183.605C220.227 184.08 222.362 183.945 224.328 183.218C226.294 182.49 228.004 181.203 229.247 179.514C230.54 180.506 232.043 181.19 233.641 181.513C235.238 181.836 236.888 181.789 238.465 181.376C240.041 180.963 241.503 180.195 242.738 179.131C243.974 178.066 244.95 176.733 245.592 175.233C250.865 175.148 255.115 171.33 255.115 166.615C255.115 161.847 250.772 157.981 245.416 157.981ZM52.7839 153.527C52.7726 153.579 52.7647 153.632 52.7541 153.684C52.6754 153.681 52.6009 153.664 52.5214 153.664C52.1993 153.673 51.8783 153.705 51.5611 153.761C51.5786 153.722 51.6032 153.688 51.6202 153.649C52.01 153.629 52.3985 153.588 52.7839 153.527V153.527ZM142.828 149.935C142.797 149.809 142.743 149.694 142.704 149.571C144.35 148.429 145.647 146.851 146.451 145.015C147.868 145.007 149.268 144.701 150.559 144.115C151.85 143.53 153.004 142.678 153.944 141.616C153.862 142.03 153.819 142.45 153.818 142.872C153.827 143.531 153.937 144.184 154.145 144.809C152.295 146.101 150.894 147.94 150.139 150.069C147.795 149.155 145.203 149.108 142.828 149.935V149.935ZM207.378 150.74C207.374 150.608 207.39 150.471 207.382 150.34C207.657 150.339 207.931 150.32 208.203 150.284C208.621 151.681 209.32 152.977 210.256 154.093C210.053 154.15 209.839 154.185 209.641 154.252C209.292 152.864 208.497 151.63 207.378 150.74V150.74Z" fill="#F9A825"/>
<path d="M22.5058 170.932C19.4487 170.932 16.4236 171.556 13.6151 172.765C10.8067 173.974 8.27369 175.744 6.17078 177.966C4.06788 180.189 2.43914 182.817 1.38397 185.69C0.328791 188.564 -0.130701 191.623 0.0335364 194.68L14.6278 395.668C14.9355 401.429 17.4373 406.852 21.618 410.82C25.7987 414.789 31.3398 417.001 37.1 417H225.276C231.036 417.001 236.577 414.789 240.758 410.82C244.938 406.852 247.44 401.429 247.748 395.668L262.342 194.68C262.506 191.623 262.047 188.564 260.992 185.69C259.937 182.817 258.308 180.189 256.205 177.966C254.102 175.744 251.569 173.974 248.761 172.765C245.952 171.556 242.927 170.932 239.87 170.932H22.5058Z" fill="#3F3D56"/>
<path d="M46.0556 170.932H33.1241V417H46.0556V170.932Z" fill="#6C63FF"/>
<path d="M82.6948 170.932H69.7633V417H82.6948V170.932Z" fill="#6C63FF"/>
<path d="M119.334 170.932H106.403V417H119.334V170.932Z" fill="#6C63FF"/>
<path d="M155.973 170.932H143.042V417H155.973V170.932Z" fill="#6C63FF"/>
<path d="M192.612 170.932H179.681V417H192.612V170.932Z" fill="#6C63FF"/>
<path d="M229.252 170.932H216.32V417H229.252V170.932Z" fill="#6C63FF"/>
<path d="M440.225 70.0536L434.588 56.3025L359.425 87.207C357.723 87.9078 356.268 89.0992 355.243 90.6299C354.219 92.1607 353.672 93.9618 353.671 95.8046V177.135H368.517V99.5572L440.225 70.0536Z" fill="#3F3D56"/>
<path d="M430.567 41.3589H414.38V92.7024H430.567V41.3589Z" fill="#6C63FF"/>
<path d="M404.938 52.1663H388.751V103.51H404.938V52.1663Z" fill="#6C63FF"/>
<path d="M379.974 96.0801L368.509 99.4574L363.788 44.7365H379.974V96.0801Z" fill="#6C63FF"/>
<path d="M389.417 102.159H338.151V118.37H389.417V102.159Z" fill="#6C63FF"/>
<path d="M389.425 124.458H338.159V140.669H389.425V124.458Z" fill="#6C63FF"/>
<path d="M389.417 146.756H338.151V162.967H389.417V146.756Z" fill="#6C63FF"/>
<path d="M414.38 417H315.219L290.931 173.775H435.97L414.38 417Z" fill="#3F3D56"/>
<path d="M446.762 169.722H280.814V185.933H446.762V169.722Z" fill="#3F3D56"/>
</g>
<defs>
<clipPath id="clip0">
<rect width="722" height="417" fill="white"/>
</clipPath>
</defs>
</svg>
